<svg xmlns="http://www.w3.org/2000/svg" viewBox="0 0 412.44 426.08"><defs><style>.cls-1{fill:#fff;}.cls-2{fill:#7acceb;}.cls-3{fill:none;stroke:#089ad0;stroke-linecap:round;stroke-miterlimit:10;stroke-width:5px;}.cls-4{fill:#92fdff;}.cls-5{fill:#089ad0;}</style></defs><g id="圖層_2" data-name="圖層 2"><g id="描繪用"><ellipse class="cls-1" cx="206.22" cy="213.04" rx="206.22" ry="213.04"/><path class="cls-2" d="M205.9,203.07l.27,20.73s-8.72,1.55-12.92,4.78-19.55,16.13-19.55,16.13,14.36,22,17.47,24.81a66.21,66.21,0,0,0,8.19,5.81s2.87,7.74,2.17,10.64-2.17,18.23-2.17,18.23l-2.17,3.11s-5.86-16.16-6.56-17.92-6-7.39-8.1-8.79S159.89,266.81,157,264.35s-15.87-14.77-16.22-19.1,4.86-14.95,7-18.38,13.41-16.85,16.31-19.94,7.26-7.13,7.26-7.13l25.78,0,1.92,2.07Z"/><path class="cls-2" d="M205.74,203.07l-.27,20.73s8.73,1.55,12.93,4.78S238,244.71,238,244.71s-14.36,22-17.47,24.81a66,66,0,0,1-8.2,5.81s0,7.2.67,10.1-.67,18.77-.67,18.77l2.17,3.11s5.86-16.16,6.57-17.92,6-7.39,8.09-8.79,22.64-13.79,25.52-16.25,15.86-14.77,16.21-19.1-4.85-14.95-7-18.38S250.39,210,247.5,206.93s-7.27-7.13-7.27-7.13l-26,1.74-1.66.29Z"/><polygon class="cls-2" points="205.91 144.44 205.91 185.25 200.42 185.25 198.63 187.37 197.19 187.91 171.27 187.37 167.73 178 205.91 144.44"/><polygon class="cls-2" points="205.98 144.44 205.98 185.25 211.47 185.25 213.26 187.37 214.69 187.91 240.62 187.37 244.16 178 205.98 144.44"/><path class="cls-2" d="M175.06,151.63s10.55-29,10.42-36.46c0,0-10.2.53-15,3.35-8.31,4.84-11.17,23.09-12.41,26.59s-6.49,15.35-6.4,17.07,1.64,12.74,6.52,15.82,4.94,3.74,9.56,0,28-24.63,28-24.63L190.14,145l-15.56,8.74Z"/><path class="cls-2" d="M236.8,151.63s-10.55-29-10.42-36.46c0,0,10.2.53,15,3.35,8.3,4.84,11.16,23.09,12.4,26.59s6.5,15.35,6.41,17.07-1.64,12.74-6.53,15.82-4.93,3.74-9.56,0-28-24.63-28-24.63l5.61-8.39,15.56,8.74Z"/><path class="cls-2" d="M206.17,106.21s-9.79-1.43-13-3.77c0,0-.82,8.47-.82,10.9,0,17-5.62,30.5-7.86,33.07S195.61,142,197,136.52s4.44-23.74,9.13-17.5Z"/><path class="cls-2" d="M205.12,106.21s9.79-1.43,13-3.77c0,0,.82,8.47.82,10.9,0,17,5.62,30.5,7.87,33.07s-11.17-4.46-12.6-9.89-4.44-23.74-9.13-17.5Z"/><path class="cls-2" d="M189.89,100.1c-.31-.27-9.55-12.08-11.12-19.9s.65-20.52,4.16-25.51,9.39-14.81,23-14.45S232,54.16,232.79,65,231,90.65,229.15,93.12a45.62,45.62,0,0,1-6.21,6.07L224,80.81l-13-5.81-10.64-.13-5.94,3.87-6.36,5.06-1.39.74Z"/><ellipse class="cls-3" cx="205.9" cy="73.19" rx="27.76" ry="32.95"/><path class="cls-4" d="M183,63.79h45.85A7.22,7.22,0,0,1,236.05,71v5.71a5.49,5.49,0,0,1-4.12,5.32l-6.82,1.75a10.26,10.26,0,0,1-6.9-.63l-6.6-3.06a14.28,14.28,0,0,0-11.51-.21l-7.91,3.31a10.32,10.32,0,0,1-7.28.26l-5.43-1.84a5.49,5.49,0,0,1-3.73-5.2V71A7.22,7.22,0,0,1,183,63.79Z"/><path class="cls-5" d="M228.83,63.79A7.22,7.22,0,0,1,236.05,71v5.71a5.49,5.49,0,0,1-4.12,5.32l-6.82,1.75a10.22,10.22,0,0,1-6.9-.63l-6.6-3.06a14.26,14.26,0,0,0-11.51-.21l-7.91,3.31a10.18,10.18,0,0,1-4,.8,10.37,10.37,0,0,1-3.3-.54l-5.43-1.84a5.49,5.49,0,0,1-3.73-5.2V71A7.22,7.22,0,0,1,183,63.79h45.85m0-5H183A12.24,12.24,0,0,0,170.75,71v5.41a10.49,10.49,0,0,0,7.13,9.94l5.42,1.84a15.49,15.49,0,0,0,4.91.8,15.18,15.18,0,0,0,5.91-1.19L202,84.51a9.24,9.24,0,0,1,7.47.14l6.61,3.06a15.3,15.3,0,0,0,10.24.94l6.82-1.76a10.48,10.48,0,0,0,7.88-10.16V71a12.23,12.23,0,0,0-12.22-12.23Z"/><path class="cls-3" d="M190.25,87.09s-3.46,9.18,5.5,16.77"/><path class="cls-3" d="M223,87.09s2.32,10.9-4.37,15.35"/><path class="cls-3" d="M193.67,104.37s.47,4.39-1.39,6.46-3.32,4.56-11.81,5-16.38,4.35-18.66,16.17-9.74,27.35-10.15,32.53,7.87,17.41,11.4,16.58,30.88-25.7,33.36-28.39,7.88-5,8.91-8.71.42-23.62,0-25.07-2.81-2.69-4.41.83S198.49,134,197,136.52s-5,8.09-10.39,10.78-9,3.94-13.49,6.42-9.69,5.6-9.69,5.6"/><path class="cls-3" d="M190.77,144.44s2.34,7.21,5.65,8.25"/><path class="cls-3" d="M192.28,110.83s1.17,29.21-11.13,39.06"/><path class="cls-3" d="M185.48,115.17s-4.5,32.34-12.32,38.55"/><path class="cls-3" d="M168.6,178s2.05,8.5,2.05,11.6,1.86,7.47,0,10.16-16,16.37-21.14,24.45-9.74,16.37-8.5,22.38,19.48,21.35,24.87,24.25,22,11.61,24,16.79,7.67,18.85,7.25,21.76-7.25,44.09-8.7,50.64-.62,19.61-.21,21.68,1,3.52,2.69,2.69,4.77-4.56,5.39-6"/><path class="cls-3" d="M194.48,371.35c.2.62,2.69,12.64,4.56,14.3s6-6.84,6.21-17.82,1.25-88.29,1-90.57-4.74-3.52-5.89-2.07-10.07-5-14-11.6-14.51-21.35-21.56-26.11"/><path class="cls-3" d="M198.4,275.19s5.36,21.75-1.91,30.25"/><path class="cls-3" d="M173,245.25s11.12-8.6,14.64-12.13,11.41-9.11,17.2-9.32"/><path class="cls-3" d="M170.46,187.37s22,1.08,28,1.08"/><path class="cls-3" d="M170.65,199.76s22,1.36,27.79.12"/><path class="cls-3" d="M169,184.22a5.1,5.1,0,0,0-4.16.83c-1.86,1.45.43,12.88,2.08,16.49"/><path class="cls-3" d="M205.9,185.25h-4.27a3.19,3.19,0,0,0-3.19,3.2v11.43a3.19,3.19,0,0,0,3.19,3.19h4.27"/><path class="cls-3" d="M218.14,104.37s-.48,4.39,1.38,6.46,3.32,4.56,11.82,5S247.71,120.16,250,132s9.74,27.35,10.15,32.53-7.87,17.41-11.4,16.58-30.87-25.69-33.36-28.39-7.88-5-8.91-8.7-.42-23.63,0-25.08,2.81-2.69,4.41.83,2.43,14.3,3.88,16.79,5,8.08,10.39,10.77,9,3.94,13.49,6.43,9.69,5.59,9.69,5.59"/><path class="cls-3" d="M221,144.45s-2.34,7.21-5.65,8.24"/><path class="cls-3" d="M219.52,110.83s-1.17,29.22,11.13,39.06"/><path class="cls-3" d="M226.32,115.17s4.5,32.34,12.32,38.55"/><path class="cls-3" d="M243.86,178s-2.05,8.5-2.05,11.6-1.86,7.47,0,10.16,16,16.37,21.14,24.45,9.74,16.37,8.5,22.38S252,267.94,246.58,270.84s-22,11.61-24,16.79-7.67,18.85-7.25,21.76,7.25,44.09,8.7,50.64.62,19.61.21,21.68-1,3.52-2.7,2.69-4.76-4.56-5.38-6"/><path class="cls-3" d="M218,371.35c-.21.62-2.69,12.64-4.56,14.3s-6-6.84-6.21-17.82-1.25-88.29-1-90.57,4.74-3.52,5.89-2.07,10.07-5,14-11.6,14.51-21.35,21.56-26.11"/><path class="cls-3" d="M214.06,275.19s-3.77,21.1,1.91,30.25"/><path class="cls-3" d="M239.45,245.25s-11.11-8.6-14.63-12.13-9.55-9.32-20-9.32"/><path class="cls-3" d="M242,187.37s-21.34,1.08-27.35,1.08"/><path class="cls-3" d="M241.81,199.76s-21.82,3-27.63,1.77"/><path class="cls-3" d="M243.46,184.22a5.1,5.1,0,0,1,4.16.83c1.86,1.45-.43,12.88-2.08,16.49"/><path class="cls-3" d="M206.55,185.25h4.28a3.19,3.19,0,0,1,3.19,3.2v11.43a3.19,3.19,0,0,1-3.19,3.19h-4.28"/></g></g></svg>