<svg xmlns="http://www.w3.org/2000/svg" viewBox="0 0 412.44 426.08"><defs><style>.cls-1{fill:#fff;}.cls-2{fill:#e8e8e8;}.cls-3,.cls-4,.cls-7{fill:none;stroke-linecap:round;stroke-width:5px;}.cls-3,.cls-4{stroke:#ffb977;}.cls-3,.cls-7{stroke-miterlimit:10;}.cls-4{stroke-linejoin:round;}.cls-5{fill:#7acceb;}.cls-6{fill:#92fdff;}.cls-7{stroke:#089ad0;}.cls-8{fill:#089ad0;}</style></defs><g id="圖層_2" data-name="圖層 2"><g id="圖層_5" data-name="圖層 5"><ellipse class="cls-1" cx="206.22" cy="213.04" rx="206.22" ry="213.04"/><path class="cls-2" d="M201.65,165.62s-18.58-.55-30.85,7.75"/><line class="cls-3" x1="138.79" y1="190.22" x2="79.07" y2="190.22"/><polyline class="cls-4" points="90.38 205.23 75.36 190.22 90.38 175.2"/><path class="cls-5" d="M142.73,129.63s21.6-37.29,51-41.52,63.52-3.46,93.19,51.31-9.29,112.46-24.24,121.69c0,0-7.15,19.76-.69,40.25,0,0-27.21,28.72-69.46,4.73,0,0,3.64-12.62-2.78-33.42,0,0,43.58-19.57,37.06-68.91,0,0,12.47-17.52,10.81-34.27s-6.83-27.1-31.4-25.84S155.94,144,142.73,129.63Z"/><path class="cls-5" d="M131.84,336.9l-9.42-76.75s15.13,1.51,19-2.32l26.74,66.84S158.24,349.47,131.84,336.9Z"/><path class="cls-6" d="M183,206a24.19,24.19,0,0,1-12.31-2.87c-8.59-5.05-12.92-11.64-14.22-15.33-1-2.77-2.72-10.72-9.71-11.13-3.92-.22-6.14,3.11-7.93,5.59-2.81,3.91-5.91,5.63-10.54,5.39-6.23-.32-8.92-7.21-8.58-18.45.12-3.88,2.6-21.46,3.73-24.54a3.07,3.07,0,0,1,2.4-1.67,4.69,4.69,0,0,1,1.76.42c2,.83,5.59,2.77,9.39,4.83,6.66,3.6,14.22,7.69,19.29,9.19,7.63,2.25,19.85,5.32,29,6,14.76,1.05,26.44-3.12,31.35-1.81s6.51,9.4,6.18,12.9c-.91,9.64-3.54,20.28-16.31,25.71C198.07,203.74,190,206,183,206Z"/><path class="cls-7" d="M143.85,127.66s12.93,12.25,22,13.82c9.66,1.66,29.77,4,44,3.05,13.78-.88,22.14,1,25.79,9.95,3,7.27,3.44,30.44-5.22,44.63s-32,19.8-48.57,18-23.93-5.91-26.89-10.64"/><path class="cls-7" d="M142.72,187.28s-7.87,17.74-7.87,20.1,4.73,1.77,4.73,1.77"/><path class="cls-7" d="M134.85,200.92s-6.5,7.2-7.53,9.71-1.33,9.9,0,11.68,3.89,3.55,6.5,2.36,4.32-4.73,5-8.27.64-10.73,2.12-13.35,3.4-4.68,6.06-3.65,2.66,7.52,1.48,9.82-2.66,8.21-3.1,11.76-2,11.36-3.95,13.44S139.73,242,140,244.47s1.4,11.68,2.69,15.81,22.28,58.52,24.05,62.8"/><path class="cls-7" d="M138.79,194.38s-6.3-2.81-10.44.88-9.31,14.63-11.23,18-5.47,15.07-5.17,17.88,7.54,12.56,8.13,14.93,3.54,20.32,3.76,27,7.59,62.29,7.79,63.84"/><path class="cls-7" d="M226.77,203.76s.72,14.46-.22,20.36c-3.14,19.67-8.65,30.25-41.25,51.45"/><path class="cls-7" d="M139.39,136.07C153.6,106,181,85.63,212.38,85.63c46,0,83.35,43.7,83.35,97.61,0,32.27-13.37,60.88-34,78.65,0,0-6.32,23.51.19,39.47"/><path class="cls-7" d="M129.49,193.5c-.1-1.09-.18-2.19-.25-3.28"/><path class="cls-7" d="M136.15,222.75A109.22,109.22,0,0,1,131.3,206"/><path class="cls-7" d="M230.42,278.55a72.05,72.05,0,0,1-18,2.29c-30,0-56.3-18.57-71-46.42"/><path class="cls-8" d="M125.83,143.59h0a4.27,4.27,0,0,1,1.51.37c2.1.88,5.92,2.91,10,5.06,6.45,3.43,13.75,7.31,18.57,8.92,9.33,3.13,24.59,5.55,33.37,6,2.24.11,4.92.17,8,.17,5.47,0,11.07-.18,15.16-.31,1.67-.05,3-.1,4-.11h.26c2,0,3.48.43,4.24,1.28s2,3.14,1.2,10l-.06.5c-1.34,11.16-2.15,17.89-15.76,24.07-8.27,3.76-16.31,5.75-23.25,5.75a23.47,23.47,0,0,1-12-2.79,34.81,34.81,0,0,1-14-15c-.45-1-.81-2-1.15-3-1.06-3-3-8.52-9.15-8.52-4.26,0-6.59,3.25-8.47,5.86-1.15,1.61-2.58,3.61-3.83,4a13.13,13.13,0,0,1-4,.62,14.25,14.25,0,0,1-6.49-1.55c-.79-.42-3.9-4.54-3.56-15.75.1-3.32,2.47-20.86,3.67-24.27.37-.56,1-1.31,1.8-1.31m-1.74,1.15h0m1.74-7.15a8.36,8.36,0,0,0-7.1,4.47c-1.58,2.67-4.26,23.29-4.37,26.93-.36,12.13,2.86,19.16,6.74,21.23a20.22,20.22,0,0,0,9.31,2.25,18.8,18.8,0,0,0,5.9-.92c5.58-1.82,7.77-9.58,10.44-9.58s2.91,3.76,4.85,8A40.48,40.48,0,0,0,168,207.68a29.49,29.49,0,0,0,15,3.62c7.75,0,16.63-2.15,25.74-6.29,16.91-7.68,17.89-17.73,19.29-29.31,1-8.51-.08-18-11.4-18h-.37c-3.14.05-11.34.42-19,.42-2.71,0-5.35-.05-7.68-.17-8.16-.42-22.79-2.68-31.78-5.7-7.31-2.45-22.32-11.4-28.14-13.83a10,10,0,0,0-3.81-.83Z"/><path class="cls-7" d="M126.43,140.52s10.42-4.83,13-4.45,13.12,9.76,22.94,12.2c14.76,3.68,33,5.78,55.22,3.9,19-1.6,14.16,23.75,9.47,35.11-7.7,18.67-25.88,20-36.88,20"/><path class="cls-7" d="M189.7,277.18s6.63,18.57,2.78,28.91"/><path class="cls-7" d="M122.05,257.62s10.09,6.92,19.58-2.12"/><path class="cls-7" d="M149.89,208.54a16.25,16.25,0,0,0,5.58,1.45"/><line class="cls-3" x1="273.65" y1="191.86" x2="333.38" y2="191.86"/><polyline class="cls-4" points="322.07 176.84 337.08 191.86 322.07 206.87"/></g></g></svg>