<svg xmlns="http://www.w3.org/2000/svg" viewBox="0 0 412.44 426.08"><defs><style>.cls-1,.cls-7{fill:#fff;}.cls-2{fill:#7acceb;}.cls-3,.cls-6{fill:none;}.cls-3,.cls-6,.cls-7{stroke:#089ad0;stroke-linecap:round;stroke-width:5px;}.cls-3,.cls-7{stroke-linejoin:round;}.cls-4{fill:#92fdff;}.cls-5{fill:#089ad0;}.cls-6{stroke-miterlimit:10;}</style></defs><g id="圖層_2" data-name="圖層 2"><g id="圖層_5" data-name="圖層 5"><ellipse class="cls-1" cx="206.22" cy="213.04" rx="206.22" ry="213.04"/><path class="cls-2" d="M247.14,144.07s25-15.88,45.3-12.24,48.5,13.16,61.35,33.53,13.32,63.87-1,84.5S323.87,287,307.55,297.92s-17.86,1.26-30.33,44.14c0,0-38.37,19.89-63.59-11.8,0,0,11.58-7.12,12.64-37.81,0,0,32.38-2.12,46.2-15.74s23.26-28.52,24.5-37.55c0,0,14.27-6.27,18.86-11.91s3-18.44,1.67-23-.74-15-18.07-25.73S247.14,144.07,247.14,144.07Z"/><path class="cls-3" d="M213.63,330.26c13.38-13,12.64-35.94,12.64-35.94"/><path class="cls-4" d="M260.27,147.76s50.29,30.42,57.18,47.45-13.79,35.29-28.59,34.88-31-7.3-35.08-19.87-4.87-19.46-11.36-21.29-22.92,3.94-28.79,2.23-11.76-14.2-2-27.58,18.66-21.9,22.31-22.71S246.16,138.7,260.27,147.76Z"/><path class="cls-5" d="M239.08,146.28h0c5.16,0,11.2,2.2,17.94,6.53l.07.05.07,0c18.79,11.36,50.25,33.51,54.73,44.56,2.26,5.6-.05,10.9-2.38,14.36-4.64,6.89-13.5,12.28-20.16,12.28H289c-12.26-.33-26.35-5.84-29.53-15.71-.69-2.15-1.28-4.1-1.85-6-2.83-9.4-5.07-16.83-13.59-19.23a17.7,17.7,0,0,0-4.87-.59,78.55,78.55,0,0,0-12.76,1.58,69.51,69.51,0,0,1-10,1.33,6.38,6.38,0,0,1-1.13-.07h0c-.29-.12-1.66-1.17-2.44-3.85s-1.27-7.81,3.56-14.45c9.76-13.41,17-19.57,18.92-20.42a16.74,16.74,0,0,1,3.71-.41m0-6a23.24,23.24,0,0,0-5.17.59c-3.65.81-12.58,9.33-22.31,22.71s-3.84,25.86,2,27.58a10.61,10.61,0,0,0,2.83.32c6,0,16.26-2.91,22.72-2.91a12,12,0,0,1,3.24.36c6.49,1.83,7.3,8.72,11.36,21.29s20.28,19.46,35.08,19.87h.49c14.76,0,34.92-18,28.1-34.89-6.89-17-57.18-47.45-57.18-47.45-9.51-6.1-16.51-7.48-21.19-7.48Z"/><path class="cls-3" d="M211.2,196.84s8.92.81,12.57,5.67"/><path class="cls-3" d="M313.87,193.58s10.47,23.13,2,33.67S285,243,270.41,235.92s-23.53-25.7-29.61-28.54-13.79-4.06-17-4.87-2.94-5.47,2.5-9.32"/><path class="cls-2" d="M141.26,176s5.78,17.12,18.25,22.4c0,0-62.6,82.84-78.9,97.14,0,0-33.48-.7-33.26-32.59,0,0,34.91-40.72,45.85-50.14S141.26,176,141.26,176Z"/><path class="cls-3" d="M47.35,262.94S78.18,225.22,94,211.84s47.86-37.31,51.91-40.15,10.95-10.95,12.57-15.82,6.09-12.16,13-16.22a39.4,39.4,0,0,1,12.78-5c1.42-.4,4.36-5.06,5.57-5.67s6.19-2,8.11-.51,2.13,4.06-.91,7-4.87,6.68-7.49,9.19c-1.67,1.59-4.67,3.38-7.27.95-1.7-1.59-.68-4.25-.68-4.25"/><path class="cls-3" d="M199.33,131s4.21-2.59,7.41-1.53,1.67,6.09,0,7.76-7.91,8.67-10,9.28-5.57-.29-5.83-3.34"/><path class="cls-3" d="M208.6,132.71s5.89-2,8,0,1.57,5.47.86,7-8.88,10-8.88,10,14.1-8.06,22.92-7.3"/><path class="cls-3" d="M214.34,140.79s-7.45,7.73-10.19,7.73-3.35-2.58-3.35-3.87"/><path class="cls-3" d="M218.29,155.52s-16.78,12.62-19,14.45-7.06,8.51-7.06,8.51"/><path class="cls-3" d="M223.77,292.45s61.24-.22,73.2-53.29"/><path class="cls-3" d="M160.85,198.39c-.8-.59-18.41-7.28-18.12-24.39"/><path class="cls-6" d="M209.29,186.19c7.46-15.13,18.31-29,32.73-38.83,35.69-24.33,68.54-17.85,93.27,0s35.21,40.91,27.1,77.82-43.72,68.58-61.57,76.29-23.11,38.93-23.11,38.93"/><path class="cls-6" d="M235.12,299.84s-32-15.81-37.31-47.44c-2.67-16.05-.44-36.57,7.06-56.08"/><path class="cls-3" d="M177.94,174.53S188.08,177,193.76,179s17.44,6.49,17.44,12.17-2,6.08-4.46,5.68-5.28-6.09-8.93-6.9-10.54,1.22-14.19,1.22-6.9-4.06-12.57-3.25S103.73,274.6,80.61,294.32"/><circle class="cls-7" cx="220.07" cy="215.72" r="4.15"/><circle class="cls-7" cx="177.25" cy="96.03" r="4.15"/><circle class="cls-7" cx="258.36" cy="134.73" r="7.37"/><circle class="cls-7" cx="215.93" cy="204.21" r="7.37"/><circle class="cls-7" cx="220.27" cy="182.3" r="12.7"/><circle class="cls-7" cx="240.52" cy="167" r="12.7"/><circle class="cls-7" cx="228.89" cy="144.65" r="15.26"/><circle class="cls-7" cx="215.17" cy="99.69" r="21.83"/><path class="cls-7" d="M216.46,86.47s12.43,0,11.59,11.59"/><path class="cls-7" d="M228.89,136.35s6.23-.06,8.11,8.3"/></g></g></svg>