<svg xmlns="http://www.w3.org/2000/svg" viewBox="0 0 79.93 72.32"><defs><style>.cls-1{fill:#fff;}</style></defs><g id="圖層_2" data-name="圖層 2"><g id="圖層_1-2" data-name="圖層 1"><path class="cls-1" d="M58.45,10.91a1.9,1.9,0,0,0-1.9,1.89v6.74H52.39a11.4,11.4,0,0,0-11.22-9.39h-18A11.38,11.38,0,0,0,23,32.91h.09a9.46,9.46,0,0,0,1.6-.2,12.83,12.83,0,0,0,7-3.68c.15-.15.34-.33.49-.46.16.14.36.34.53.5a12.39,12.39,0,0,0,6.84,3.64,9.07,9.07,0,0,0,1.64.2h.07a11.4,11.4,0,0,0,11.19-9.58h4.12V39.84a4.93,4.93,0,0,1-4.93,4.93H38.81a4.94,4.94,0,0,1-4.93-4.93V38.71a15,15,0,0,1,2.35.67,2,2,0,0,0,.68.12,1.89,1.89,0,0,0,.69-3.66,17,17,0,0,0-5.43-1.13,17,17,0,0,0-5.43,1.13,1.9,1.9,0,0,0,1.37,3.54,13.68,13.68,0,0,1,2-.59v1.05a8.73,8.73,0,0,0,8.72,8.72H51.62a8.74,8.74,0,0,0,8.73-8.72v-27A1.9,1.9,0,0,0,58.45,10.91ZM41.26,29.12a5.25,5.25,0,0,1-1-.12,8.75,8.75,0,0,1-5-2.65,4.84,4.84,0,0,0-2.89-1.67l-.27,0h-.1a1.73,1.73,0,0,0-.32,0A4.76,4.76,0,0,0,29,26.3,9,9,0,0,1,24,29a7,7,0,0,1-.92.12,7.59,7.59,0,0,1,.15-15.18h18a7.59,7.59,0,0,1,.09,15.18ZM60.35,1.9V5.22a1.9,1.9,0,0,1-3.8,0V1.9a1.9,1.9,0,1,1,3.8,0Z"/><path class="cls-1" d="M0,69.44V59.61H2v9.83Z"/><path class="cls-1" d="M5.24,59.61H8.86a7.28,7.28,0,0,1,1.87.19,3.21,3.21,0,0,1,1.48.91,4.08,4.08,0,0,1,.94,1.59,7.1,7.1,0,0,1,.32,2.32,6.5,6.5,0,0,1-.3,2.09,4.32,4.32,0,0,1-1.05,1.74,3.57,3.57,0,0,1-1.39.78A6,6,0,0,1,9,69.44H5.24Zm2,1.67v6.5H8.7a5.56,5.56,0,0,0,1.2-.09,1.84,1.84,0,0,0,.8-.41,2,2,0,0,0,.52-1,6.2,6.2,0,0,0,.2-1.8,5.7,5.7,0,0,0-.2-1.75,2.26,2.26,0,0,0-.56-1,1.87,1.87,0,0,0-.92-.46,9.4,9.4,0,0,0-1.63-.09Z"/><path class="cls-1" d="M17.92,64.49l-1.71-.31a2.7,2.7,0,0,1,1-1.52,3.64,3.64,0,0,1,2.09-.5,4.5,4.5,0,0,1,1.88.3,1.88,1.88,0,0,1,.87.76,3.8,3.8,0,0,1,.25,1.68l0,2.2a7.68,7.68,0,0,0,.09,1.38,3.83,3.83,0,0,0,.34,1H20.84c-.05-.13-.11-.31-.18-.56a2.27,2.27,0,0,1-.07-.22,3.36,3.36,0,0,1-1,.7,2.93,2.93,0,0,1-1.18.24,2.41,2.41,0,0,1-1.73-.6A2,2,0,0,1,16,67.49a1.93,1.93,0,0,1,.29-1.07,1.88,1.88,0,0,1,.8-.73,6.61,6.61,0,0,1,1.5-.43,9.92,9.92,0,0,0,1.83-.47v-.18a1,1,0,0,0-.27-.78,1.62,1.62,0,0,0-1-.23,1.34,1.34,0,0,0-.78.2A1.37,1.37,0,0,0,17.92,64.49ZM20.44,66a10.85,10.85,0,0,1-1.15.29,3.28,3.28,0,0,0-1,.33.76.76,0,0,0-.37.66.91.91,0,0,0,.3.68,1,1,0,0,0,.75.29,1.65,1.65,0,0,0,1-.33,1.16,1.16,0,0,0,.45-.63,3.7,3.7,0,0,0,.07-.92Z"/><path class="cls-1" d="M37.23,69.44H35.48v-1a2.78,2.78,0,0,1-1,.91,2.59,2.59,0,0,1-1.19.3,2.7,2.7,0,0,1-2.1-1,4.82,4.82,0,0,1,0-5.51,2.78,2.78,0,0,1,2.15-.94,2.67,2.67,0,0,1,2.07,1V59.61h1.88Zm-5-3.72a3.26,3.26,0,0,0,.32,1.65,1.42,1.42,0,0,0,1.27.74,1.39,1.39,0,0,0,1.11-.55,2.58,2.58,0,0,0,.45-1.65,2.77,2.77,0,0,0-.44-1.77,1.39,1.39,0,0,0-1.13-.54,1.42,1.42,0,0,0-1.12.53A2.43,2.43,0,0,0,32.2,65.72Z"/><path class="cls-1" d="M41.87,64.49l-1.71-.31a2.65,2.65,0,0,1,1-1.52,3.62,3.62,0,0,1,2.09-.5,4.53,4.53,0,0,1,1.88.3,1.81,1.81,0,0,1,.86.76,3.8,3.8,0,0,1,.25,1.68l0,2.2a7.68,7.68,0,0,0,.09,1.38,4.28,4.28,0,0,0,.34,1H44.78c-.05-.13-.11-.31-.18-.56a1.44,1.44,0,0,0-.07-.22,3.25,3.25,0,0,1-1,.7,2.92,2.92,0,0,1-1.17.24A2.4,2.4,0,0,1,40.6,69,2,2,0,0,1,40,67.49a2,2,0,0,1,.29-1.07,1.85,1.85,0,0,1,.81-.73,6.3,6.3,0,0,1,1.5-.43,9.76,9.76,0,0,0,1.82-.47v-.18a1,1,0,0,0-.26-.78,1.66,1.66,0,0,0-1-.23,1.36,1.36,0,0,0-.78.2A1.3,1.3,0,0,0,41.87,64.49ZM44.38,66a11.19,11.19,0,0,1-1.14.29,3.37,3.37,0,0,0-1,.33.78.78,0,0,0-.36.66.9.9,0,0,0,.29.68,1,1,0,0,0,.75.29,1.65,1.65,0,0,0,1-.33,1.16,1.16,0,0,0,.45-.63,3.7,3.7,0,0,0,.07-.92Z"/><path class="cls-1" d="M51.42,69.44l-2.87-7.12h2L51.87,66l.39,1.22c.1-.31.16-.52.19-.61s.13-.41.2-.61L54,62.32h1.93l-2.83,7.12Z"/><path class="cls-1" d="M58.47,61.36V59.61h1.88v1.75Zm0,8.08V62.32h1.88v7.12Z"/><path class="cls-1" d="M70.12,69.44H68.24V65.8a5.7,5.7,0,0,0-.12-1.49,1,1,0,0,0-.39-.52,1.08,1.08,0,0,0-.65-.19,1.5,1.5,0,0,0-.88.27,1.3,1.3,0,0,0-.53.71,5.86,5.86,0,0,0-.15,1.63v3.23H63.64V62.32h1.75v1a2.83,2.83,0,0,1,2.34-1.21,2.79,2.79,0,0,1,1.14.22,1.78,1.78,0,0,1,.78.58,2,2,0,0,1,.37.79,5.84,5.84,0,0,1,.1,1.26Z"/><path class="cls-1" d="M73.23,69.91l2.15.26a.73.73,0,0,0,.25.51,1.38,1.38,0,0,0,.85.2,2.16,2.16,0,0,0,1.1-.22.91.91,0,0,0,.38-.47,3.31,3.31,0,0,0,.08-.87v-1a2.54,2.54,0,0,1-2.13,1.16,2.63,2.63,0,0,1-2.27-1.22A4.07,4.07,0,0,1,73,65.84a3.92,3.92,0,0,1,.87-2.74A2.76,2.76,0,0,1,76,62.16a2.6,2.6,0,0,1,2.17,1.16v-1h1.77v6.39a6.3,6.3,0,0,1-.21,1.88,2.41,2.41,0,0,1-.58,1,2.63,2.63,0,0,1-1,.55,5,5,0,0,1-1.58.2A4.07,4.07,0,0,1,74,71.7a1.94,1.94,0,0,1-.75-1.57Zm1.68-4.18a2.58,2.58,0,0,0,.44,1.66,1.39,1.39,0,0,0,1.09.53,1.49,1.49,0,0,0,1.16-.54,2.35,2.35,0,0,0,.48-1.6,2.49,2.49,0,0,0-.46-1.64,1.44,1.44,0,0,0-1.15-.54,1.42,1.42,0,0,0-1.12.53A2.46,2.46,0,0,0,74.91,65.73Z"/></g></g></svg>