<svg xmlns="http://www.w3.org/2000/svg" viewBox="0 0 683.22 636.6"><defs><style>.cls-1,.cls-2,.cls-3,.cls-5{fill:none;stroke-linecap:round;}.cls-1,.cls-2,.cls-5{stroke:#000;stroke-linejoin:round;}.cls-1{stroke-width:5px;}.cls-2,.cls-3{stroke-width:3px;}.cls-3{stroke:#089ad0;stroke-miterlimit:10;}.cls-4{fill:#089ad0;}</style></defs><g id="圖層_2" data-name="圖層 2"><g id="圖層_1-2" data-name="圖層 1"><polygon class="cls-1" points="376.77 61.85 387.03 43.88 438 30.72 456.11 6.58 477.94 2.5 490.46 14.3 501.22 27.86 517.42 31.46 534.69 31.56 534.69 43.88 547.98 50.28 532.04 57.81 517.61 80.27 516.51 97.32 524.87 135.62 513.62 149.98 507.24 171.28 499.18 183.69 488.01 194.71 486.8 207.58 486.7 224.05 460.53 319.05 440.88 375.39 414.48 418.16 404.51 436.6 377.53 461.33 357.61 511.58 356.06 567.57 340.01 574.75 323.73 574.75 328.93 551.3 310.86 504.96 261.34 474.21 243.44 429.16 229.91 397.54 211.59 378.99 232.1 331.76 230.69 280.8 265.72 223.09 294.74 180.54 327.32 127.03 354.75 100.04 362.31 98.27 363.58 76.95 376.77 61.85"/><polyline class="cls-1" points="425.46 33.95 443.94 43.17 438.68 55.18 432.03 61.02 436.82 80.28 451.04 88.11 452.1 101.73 459.7 108.69 478.96 99.73 477.88 91.04 497.01 82.42 526.99 65.67"/><polyline class="cls-1" points="376.77 61.85 403.26 77.64 428.4 97.73 437.35 116.45 443.51 124.8 452.35 114.29 459.7 108.69"/><polyline class="cls-1" points="443.51 124.8 445.2 134.92 430.68 148.69 434.37 157.5 444.77 160.51 479.62 169.65 486.83 164 507.24 171.28"/><polyline class="cls-1" points="362.31 98.27 390.24 121.39 387.38 135.86 413.71 137.59 419.7 151.54 430.68 148.69"/><polyline class="cls-1" points="313.95 151.54 352.8 173.62 362.83 168.92 383.23 173.29 405.21 164.07 417 159.94 419.7 151.54"/><polyline class="cls-1" points="452.56 164.26 438.76 182.2 426.16 193.83 431.54 207.06 420.6 226.01 420.56 246.41 413.31 262.25 417.66 280.43 408.98 293.85 389.92 307.01 382.5 314.97 381.72 320.69 374.88 330.73 383.8 342.27 390.66 354.96 399.56 357.79 409.54 363.1 418.38 376.33 424.96 376.66 432.46 372.09 445.25 339.28 444.42 328.87 451.75 318.33 460.53 319.05"/><polyline class="cls-1" points="432.9 185.28 420.69 183.73 406.61 188.15 395.23 189.51 373.41 200.28 362.79 205.42 350.61 204.71 336.53 222.99 324.2 223.17 311.96 215.97 305.78 206.9 294.38 196.99 289.17 188.7"/><polyline class="cls-1" points="324.2 223.17 311.63 226.01 313.47 244.82 313.14 253.05 321.06 256.32 312.51 262.29 285.74 257.19 274 253.05 255.76 255.75 246.97 252.84"/><polyline class="cls-1" points="312.51 262.29 315.46 274.28 314.44 285.88 322.38 291.54 330.11 291.52 329.76 298.29 310.35 296.69 286.96 287.29 271.14 289.44 255.62 300.44 246.97 308.11 232.06 305.65"/><polyline class="cls-1" points="330.11 291.52 344.08 293.06 344.73 302.6 349.02 313.14 364.54 313.46 381.72 320.69"/><polyline class="cls-1" points="364.54 313.46 340.63 334.65 324.57 345.64 315.46 344.69 316.93 355.02 303.76 357.55 295.09 347.7 296.66 337.4 283.47 325.73 262.31 329.29 252.02 336.84 241.42 344.58 229.37 340.49"/><path class="cls-1" d="M316.93,355l-8.54,15.64L296.58,387,283.5,400.06l-8.68,9.44s-6.07,5.64-11.21,4.43-17.14-2.06-17.14-2.06L235,409.5"/><polyline class="cls-1" points="383.8 342.27 363.58 349.23 359.08 365.58 355.21 383.25 352.62 393.36 346.38 402.6 349.71 414.77 358.55 430.19 354.54 443.92 339.13 450.48 332.23 470.2 335.3 482.5 338.61 490.7 338.26 497.98 338.94 508.69 341.61 518.4 357.11 529.61"/><polyline class="cls-1" points="349.71 414.77 336.47 421.56 327.91 415.62 319.24 417.8 309.98 415.27 296.27 423.84 288.68 422.65 282.92 443.89 281.07 464.42 276.16 483.41"/><polygon class="cls-2" points="260.24 500.58 275.15 500.59 268.55 509.23 257.29 509.35 260.24 500.58"/><path class="cls-2" d="M147.35,307.82a15.67,15.67,0,0,1,11.86-1.61L171,308.46l-12.85-13.75-9.58,1.62-3.1-9.64L135.71,280l3.92,16.31-1.44,3.62-6.11-2-1.35,4.49,4.34,3.41,5.56,4.19-12.91-2.12,3.42,5.91,7.05,3.28h4.2Z"/><path class="cls-2" d="M120.26,278.64,126,284l3.93,2.58-7.43,3.36-1.65,6.43-.56,5.46a43.37,43.37,0,0,0-5.33,2.68c-.62.62-10.67.41-9.85-.31s5.74-4.3,5.74-4.3l5-6.17s1.55-5.8,1.68-7.15S120.26,278.64,120.26,278.64Z"/><path class="cls-2" d="M121.55,342.76l-1.24-3.36,6.22-.46v3.82s-.76,1.82,1.87,2.72a32.36,32.36,0,0,1,6.55,3.86l-11.57,1.31-7.59-.54Z"/><path class="cls-2" d="M144.4,266c1.24-.45,6.23-3,6.23-3l-6.23-5.39L138.29,260Z"/><path class="cls-2" d="M145.13,134.66s6.5,7.9,7.38,7.42,8.76-11.28,9.41-11.28,12.43,6.93,12.43,6.93L171,151.54l-12.7-2.86-11,7.2s-9.13.25-8.64,0,2.61-10.57,2.61-10.57l-2.63-10Z"/><path class="cls-2" d="M127.54,144.45l8.25.42-2.2,7.42L125.17,155s-3.22-5.23-2.74-5.55S127.54,144.45,127.54,144.45Z"/><path class="cls-2" d="M153.65,54.63c.67.16,7-.51,7-.51v5L150,64.85l-2.77-2.09Z"/><path class="cls-2" d="M128.49,27.94s1.5,4.36,1.68,4.85,5.08.09,5.08.09l7.55-2.77L145.65,33s-.85,4.57-2.85,4.09-15.37,4.42-15.37,4.42-6.29-1.14-6.29-1.33,1.47-8.41,1.47-8.41l1-5Z"/><path class="cls-2" d="M145.65,18.67c1.77-.41,9.17,0,9.17,0l-2.4-8.15-7.34-1.77-7.84,8.86v6.94l3.39,2.23L141.94,22Z"/><path class="cls-2" d="M165.67,6.57l3.74,6.4,3.46-3.2,3.7-3.2,4.13,5.72L185,17.77s-6.66-.18-7.22,0-5.55,0-5.55,0L167.63,22s-5.45.71-5,0-.8-4.9-.26-5.22,1.79-2,1.49-2.35-3.79-2-4.76-2.65-1-3.06-1-3.06Z"/><path class="cls-2" d="M139.84,50.77l8.52-.91-1.1,4.26L143.06,58s-5-.19-5.82-.84-1.75-3.86-1.75-3.86Z"/><path class="cls-2" d="M452.8,547.57l8-.12s7.29-1,7,.12-3,3.39-3,3.39l5.75,4.14-.8,6s-3.62,2.07-4.24,1.59-7.16-3.32-7.16-3.32l-6.89-.41Z"/><path class="cls-2" d="M448.35,448.22l9.11-2.82v7L453.34,457s-5.87,1-6.36.43L442.66,452Z"/><polygon class="cls-2" points="530.12 79.11 537.63 75.45 544.52 80.16 543.23 83.74 534.31 81.81 530.12 79.11"/><polygon class="cls-1" points="477.26 27.86 479.88 33.83 483.45 37.15 481.61 42.39 485.06 47.46 478.93 50.75 478.79 56.28 479.46 60.67 467.95 54.62 460.66 49.03 462.14 43.16 460.54 37.82 455.05 34.69 458.7 25.95 465.7 23.12 471.28 17.72 477.26 27.86"/><polyline class="cls-1" points="497.79 24.04 490.49 26.47 487.59 30.65 493.65 40.22 500.38 42.77 505.8 42.39 505.8 35.72 511.98 34.69 514.1 30.65"/><circle class="cls-3" cx="541.5" cy="15.57" r="9.14"/><circle class="cls-4" cx="541.5" cy="15.57" r="4.48"/><path d="M580.27,17.69a19.76,19.76,0,0,0,7.25,4.36,8.12,8.12,0,0,0-1.42,1.69,21.6,21.6,0,0,1-7.37-5.14V24h-2V18.68a21.37,21.37,0,0,1-7.24,5,9.35,9.35,0,0,0-1.35-1.65,19.92,19.92,0,0,0,7.08-4.38h-4.74V9.9h6.25V8.37h-8V6.55h8V4.68h2V6.55H587V8.37h-8.24V9.9h6.57v7.79Zm-7.92-4.61h4.34V11.4h-4.34Zm0,3.12h4.34V14.49h-4.34Zm6.38-4.8v1.68h4.59V11.4Zm4.59,3.09h-4.59V16.2h4.59Z"/><path d="M598.22,18.45l.33,1.75c-3,1.26-6.23,2.59-8.65,3.56l-.88-2c1.47-.49,3.55-1.22,5.76-2v-8h-5.09v-2h5.09V5.06h2V19Zm6.93,2.89c.86,0,1-1,1.11-4.89a5.69,5.69,0,0,0,1.88.93c-.19,4.34-.66,5.87-2.83,5.87h-2.67c-2,0-2.63-.71-2.63-3.2v-15h2V9.8h5.66v1.93h-5.66v8.34c0,1.08.13,1.27.86,1.27Z"/><path d="M627.77,21.67c0,1.16-.3,1.73-1.16,2a16.1,16.1,0,0,1-4.36.31,7.4,7.4,0,0,0-.74-1.89c1.58.08,3.25.06,3.73,0s.59-.13.59-.53V19.46H614.65a9,9,0,0,1-3.18,4.66,8,8,0,0,0-1.37-1.41c3-2.19,3.28-5.35,3.28-8V11.29A14.89,14.89,0,0,1,612,12.43,5.82,5.82,0,0,0,610.54,11a17,17,0,0,0,5.69-6.44l2.1.4c-.14.29-.31.57-.48.86h4.63l.34-.08,1.33.88a21,21,0,0,1-1.82,2.78h5.44Zm-12.49-6.42a17.21,17.21,0,0,1-.23,2.49h4.42V15.25Zm1.49-7.75a19.16,19.16,0,0,1-1.51,1.94h4.91a20.18,20.18,0,0,0,1.26-1.94Zm-1.49,6.07h4.19V11.19h-4.19Zm10.55-2.38h-4.49v2.38h4.49Zm0,6.55V15.25h-4.49v2.49Z"/><path d="M568.79,34.71h1.5l4.15,7.19,1.22,2.35h.07c-.07-1.15-.18-2.43-.18-3.61V34.71h1.37V46.12h-1.48l-4.16-7.21-1.23-2.35H570c.06,1.15.17,2.37.17,3.57v6h-1.37Z"/><path d="M579.27,41.9c0-2.82,1.85-4.45,3.92-4.45s3.92,1.63,3.92,4.45-1.85,4.42-3.92,4.42S579.27,44.7,579.27,41.9Zm6.38,0c0-1.94-1-3.27-2.46-3.27s-2.44,1.33-2.44,3.27,1,3.24,2.44,3.24S585.65,43.85,585.65,41.9Z"/><path d="M589.34,37.67h1.17l.12,1.54h0a2.91,2.91,0,0,1,2.4-1.76,1.79,1.79,0,0,1,.9.19l-.26,1.24a2,2,0,0,0-.83-.14c-.7,0-1.57.5-2.13,1.95v5.43h-1.42Z"/><path d="M595.63,43.5V38.82h-1.26V37.75l1.32-.08.17-2.37h1.19v2.37h2.28v1.15h-2.28v4.71c0,1,.32,1.64,1.3,1.64a3,3,0,0,0,1-.22L599.6,46a5.15,5.15,0,0,1-1.56.31C596.24,46.32,595.63,45.2,595.63,43.5Z"/><path d="M601.25,33.73h1.42v3.39l0,1.75a4,4,0,0,1,2.8-1.42c1.78,0,2.59,1.15,2.59,3.31v5.36h-1.42V41c0-1.59-.48-2.26-1.6-2.26a3.19,3.19,0,0,0-2.32,1.3v6.13h-1.42Z"/><path d="M610.06,41.9c0-2.74,1.85-4.45,3.82-4.45,2.14,0,3.36,1.56,3.36,4a5.85,5.85,0,0,1-.06.81h-5.7a2.8,2.8,0,0,0,2.8,3,3.59,3.59,0,0,0,2.12-.67l.51.94a5.06,5.06,0,0,1-2.8.87C611.87,46.32,610.06,44.69,610.06,41.9Zm5.93-.68c0-1.72-.78-2.63-2.1-2.63a2.6,2.6,0,0,0-2.43,2.63Z"/><path d="M618.55,43.92c0-1.83,1.6-2.75,5.2-3.16,0-1.09-.36-2.13-1.75-2.13a4.62,4.62,0,0,0-2.53.9l-.57-1a6.45,6.45,0,0,1,3.34-1.1c2,0,2.92,1.38,2.92,3.47v5.2H624l-.12-1h0a4.52,4.52,0,0,1-2.8,1.21A2.29,2.29,0,0,1,618.55,43.92Zm5.2.14V41.7c-2.85.34-3.82,1-3.82,2.13s.66,1.35,1.5,1.35A3.48,3.48,0,0,0,623.75,44.06Z"/><path d="M626.91,45.15l.7-.93a3.83,3.83,0,0,0,2.5,1c1.12,0,1.67-.6,1.67-1.33s-1-1.24-1.93-1.6c-1.18-.44-2.52-1-2.52-2.44s1.07-2.4,2.91-2.4a4.35,4.35,0,0,1,2.63.95l-.69.92a3.15,3.15,0,0,0-1.94-.75c-1.06,0-1.54.56-1.54,1.21,0,.81.92,1.11,1.86,1.47,1.23.46,2.59,1,2.59,2.56,0,1.37-1.09,2.51-3.08,2.51A5.09,5.09,0,0,1,626.91,45.15Z"/><path d="M635.05,43.5V38.82h-1.26V37.75l1.32-.08.17-2.37h1.19v2.37h2.28v1.15h-2.28v4.71c0,1,.32,1.64,1.3,1.64a3,3,0,0,0,1-.22L639,46a5.15,5.15,0,0,1-1.56.31C635.66,46.32,635.05,45.2,635.05,43.5Z"/><path d="M643.63,40.42c0-3.69,2.16-5.93,5.06-5.93a4.21,4.21,0,0,1,3.12,1.42l-.77.93a3.14,3.14,0,0,0-2.34-1.09c-2.16,0-3.59,1.78-3.59,4.63s1.37,4.68,3.54,4.68a3.46,3.46,0,0,0,2.65-1.28l.79.91a4.41,4.41,0,0,1-3.5,1.63C645.76,46.32,643.63,44.13,643.63,40.42Z"/><path d="M653.45,41.9c0-2.82,1.85-4.45,3.92-4.45s3.92,1.63,3.92,4.45-1.85,4.42-3.92,4.42S653.45,44.7,653.45,41.9Zm6.38,0c0-1.94-1-3.27-2.46-3.27s-2.44,1.33-2.44,3.27,1,3.24,2.44,3.24S659.83,43.85,659.83,41.9Z"/><path d="M662.74,43.92c0-1.83,1.61-2.75,5.2-3.16,0-1.09-.35-2.13-1.74-2.13a4.68,4.68,0,0,0-2.54.9l-.56-1a6.44,6.44,0,0,1,3.33-1.1c2.06,0,2.93,1.38,2.93,3.47v5.2h-1.17l-.12-1H668a4.52,4.52,0,0,1-2.8,1.21A2.29,2.29,0,0,1,662.74,43.92Zm5.2.14V41.7c-2.84.34-3.81,1-3.81,2.13s.65,1.35,1.49,1.35A3.44,3.44,0,0,0,667.94,44.06Z"/><path d="M671.11,45.15l.7-.93a3.83,3.83,0,0,0,2.5,1c1.12,0,1.67-.6,1.67-1.33s-1-1.24-1.93-1.6c-1.19-.44-2.53-1-2.53-2.44s1.08-2.4,2.92-2.4a4.35,4.35,0,0,1,2.63.95l-.69.92a3.15,3.15,0,0,0-1.94-.75c-1.06,0-1.54.56-1.54,1.21,0,.81.91,1.11,1.86,1.47,1.23.46,2.59,1,2.59,2.56,0,1.37-1.09,2.51-3.09,2.51A5.07,5.07,0,0,1,671.11,45.15Z"/><path d="M679.25,43.5V38.82H678V37.75l1.32-.08.17-2.37h1.18v2.37H683v1.15h-2.29v4.71c0,1,.33,1.64,1.31,1.64a3,3,0,0,0,1-.22l.28,1.06a5.27,5.27,0,0,1-1.56.31C679.85,46.32,679.25,45.2,679.25,43.5Z"/><circle class="cls-3" cx="492.54" cy="553.65" r="9.14"/><circle class="cls-4" cx="492.54" cy="553.65" r="4.48"/><path d="M523.61,545.48h-4v-1.62h4v-1.09h1.92v1.09h2.82v1.62h-2.82v1h-1.92Zm-1.3,6.3V562.1H520.5V546.83h7.34v4.95Zm0-3.77v.8h3.79V548Zm3.79,2.59v-.8h-3.79v.8Zm6.52,10.59c-.54-.48-2.1-1.58-3.11-2.27v2.8H528V559a12.63,12.63,0,0,1-3.9,2.3,6.48,6.48,0,0,0-1-1.2,12.57,12.57,0,0,0,3.88-1.75h-2.7v-4H528v-.72h-4.34v-1.09H528v-1h1.56v1H534v1.09h-4.53v.72h3.91v4H530.5c1,.57,2.52,1.45,3,1.72Zm-7.11-3.92h2.59v-1.83h-2.59Zm1.28-1.68a10.43,10.43,0,0,1,.82,1.22l-.78.38a14,14,0,0,0-.8-1.31Zm11.31-11.73v1.62h-4v1h-1.94v-1h-3v-1.62h3v-1.09h1.94v1.09Zm-6,11.58h-2.7v1.83h2.7Zm5.14,4.57c0,.89-.19,1.35-.76,1.62a6,6,0,0,1-2.59.32,6.27,6.27,0,0,0-.57-1.62c.76,0,1.47,0,1.72,0s.32-.09.32-.34V551.8h-5.77v-5h7.65Zm-7.37-3.09c.27-.42.65-1,.84-1.35l.86.4c-.36.48-.72.92-1,1.28Zm1.49-8.89v.78h4V548Zm4,2.57v-.78h-4v.78Z"/><path d="M545.71,546.3H547V560h-1.28v-.91h-4.93v-12.8h1.33v11.1h1V543.08h1.53v14.28h1Zm6.73,12.15a28.84,28.84,0,0,1-4.21,3.65,12.65,12.65,0,0,0-1.07-1.5,22.05,22.05,0,0,0,3.71-2.84Zm7.06-2.78v1.67h-12v-1.67h.77L548,545a19.76,19.76,0,0,0,2.68-1.6l1.05,1.32a19.2,19.2,0,0,1-2.17,1.2l0,2.13h1.67v1.54h-1.63l.05,2.23h1.58v1.54h-1.54l.06,2.35H557c0-.67.09-1.45.11-2.27h-1.29v-1.52h1.33c0-.73,0-1.51.06-2.27h-1.39v-1.52h1.42v-2.36h-1.5V544.2h3c0,3.6-.08,8.42-.25,11.47Zm-5.45-6.17H552v-6.61h1.41v1.92h1.9v1.54h-1.9V548h2v5.7c0,.66-.08,1-.55,1.22a4.69,4.69,0,0,1-2.06.24,4.12,4.12,0,0,0-.38-1.22h0l-.8-.45a9.6,9.6,0,0,0,.7-3.54l1.09.17a11.76,11.76,0,0,1-.8,3.82,12,12,0,0,0,1.24,0c.21,0,.26-.07.26-.26Zm1.41,8.22a41.28,41.28,0,0,1,3.81,3l-1.16,1.3a36.11,36.11,0,0,0-3.73-3.16Z"/><path d="M525.13,584.39c-3.23,0-5.52-2.29-5.52-5.94s2.27-5.87,5.52-5.87,5.53,2.21,5.53,5.87S528.45,584.39,525.13,584.39Zm0-1.26c2.43,0,4-1.82,4-4.68s-1.62-4.61-4-4.61-4,1.76-4,4.61S522.72,583.13,525.13,583.13Z"/><path d="M533.42,575.75h1.16l.13,1.54h0a2.9,2.9,0,0,1,2.39-1.75,1.83,1.83,0,0,1,.91.18l-.27,1.25a2,2,0,0,0-.82-.14c-.7,0-1.58.5-2.14,1.94v5.44h-1.41Z"/><path d="M538.65,580a4.11,4.11,0,0,1,4.08-4.45,3.61,3.61,0,0,1,2.47,1l-.73,1a2.46,2.46,0,0,0-1.7-.76c-1.52,0-2.64,1.32-2.64,3.27s1.06,3.23,2.61,3.23a2.94,2.94,0,0,0,2-.84l.61,1a4,4,0,0,1-2.72,1.08C540.38,584.41,538.65,582.79,538.65,580Z"/><path d="M547.21,571.82h1.42v3.39l0,1.74a4,4,0,0,1,2.8-1.41c1.77,0,2.58,1.15,2.58,3.31v5.36h-1.41V579c0-1.59-.48-2.26-1.61-2.26a3.21,3.21,0,0,0-2.31,1.29v6.14h-1.42Z"/><path d="M556.4,573.09a1,1,0,0,1,2,0,1,1,0,0,1-2,0Zm.26,2.66h1.42v8.46h-1.42Z"/><path d="M560.33,580c0-2.74,1.73-4.45,3.66-4.45a3.44,3.44,0,0,1,2.38,1l-.08-1.46v-3.25h1.42v12.39h-1.15l-.14-1h0a3.8,3.8,0,0,1-2.57,1.2C561.7,584.41,560.33,582.8,560.33,580Zm6,2.07v-4.44a2.94,2.94,0,0,0-2-.89c-1.37,0-2.44,1.31-2.44,3.24s.84,3.25,2.33,3.25A2.88,2.88,0,0,0,566.29,582.06Z"/><path d="M574.2,572.8h1.45v11.41H574.2Z"/><path d="M577.69,583.24l.7-.93a3.85,3.85,0,0,0,2.51,1c1.12,0,1.66-.59,1.66-1.32s-1-1.25-1.93-1.6c-1.18-.44-2.52-1-2.52-2.45s1.08-2.39,2.91-2.39a4.32,4.32,0,0,1,2.63,1l-.68.91a3.2,3.2,0,0,0-2-.74c-1.06,0-1.54.56-1.54,1.21,0,.81.92,1.11,1.87,1.46,1.23.47,2.58,1,2.58,2.57,0,1.37-1.09,2.51-3.08,2.51A5.09,5.09,0,0,1,577.69,583.24Z"/><path d="M585.93,582.52v-10.7h1.41v10.8c0,.43.19.6.41.6a1.21,1.21,0,0,0,.29,0l.21,1.09a2.21,2.21,0,0,1-.83.13C586.36,584.41,585.93,583.72,585.93,582.52Z"/><path d="M589.83,582c0-1.84,1.61-2.75,5.2-3.16,0-1.09-.35-2.13-1.74-2.13a4.68,4.68,0,0,0-2.54.9l-.56-1a6.35,6.35,0,0,1,3.33-1.1c2.06,0,2.93,1.38,2.93,3.47v5.2h-1.17l-.12-1h0a4.54,4.54,0,0,1-2.8,1.22A2.29,2.29,0,0,1,589.83,582Zm5.2.14v-2.36c-2.84.34-3.81,1-3.81,2.13s.65,1.35,1.49,1.35A3.44,3.44,0,0,0,595,582.15Z"/><path d="M599.14,575.75h1.17l.13,1.22h0a4,4,0,0,1,2.84-1.43c1.77,0,2.58,1.15,2.58,3.31v5.36h-1.42V579c0-1.59-.48-2.26-1.6-2.26a3.24,3.24,0,0,0-2.32,1.29v6.14h-1.42Z"/><path d="M608.05,580c0-2.74,1.73-4.45,3.66-4.45a3.46,3.46,0,0,1,2.38,1l-.08-1.46v-3.25h1.42v12.39h-1.16l-.14-1h0a3.77,3.77,0,0,1-2.56,1.2C609.42,584.41,608.05,582.8,608.05,580Zm6,2.07v-4.44a3,3,0,0,0-2-.89c-1.37,0-2.45,1.31-2.45,3.24s.84,3.25,2.34,3.25A2.89,2.89,0,0,0,614,582.06Z"/><circle class="cls-3" cx="476.75" cy="446.89" r="9.14"/><circle class="cls-4" cx="476.75" cy="446.89" r="4.48"/><path d="M505.63,449.88a49.2,49.2,0,0,1-.95,4.9,8.34,8.34,0,0,0-1.49-.42,28.85,28.85,0,0,0,.93-4.82Zm4-1.2c-.06-.3-.15-.62-.25-1-4.26.65-4.95.84-5.35,1.05a12.44,12.44,0,0,0-.61-1.68c.48-.13.95-.64,1.58-1.44.29-.33.88-1.11,1.56-2.1a10.19,10.19,0,0,0-2.68.46,14,14,0,0,0-.61-1.68c.36-.11.72-.53,1.12-1.14a25.37,25.37,0,0,0,2.48-5.16l1.77.69a32.49,32.49,0,0,1-2.93,5.33l1.9-.17a23.41,23.41,0,0,0,1.58-2.92l1.58.94a39.65,39.65,0,0,1-4.57,6.74l2.74-.38c-.21-.63-.45-1.26-.66-1.83l1.31-.38c.5,1.31,1.16,3.06,1.43,4.09Zm-2,.75a34.44,34.44,0,0,1,.59,4.41l-1.47.37a32.46,32.46,0,0,0-.51-4.46Zm2.07-.54a28.92,28.92,0,0,1,1.22,4l-1.37.48a34.58,34.58,0,0,0-1.16-4.06Zm12.12,4.71a52.09,52.09,0,0,0-4.36-3.18v3c0,.89-.14,1.37-.73,1.62a6.33,6.33,0,0,1-2.59.32,5.15,5.15,0,0,0-.55-1.69c.78,0,1.54,0,1.75,0s.31-.09.31-.3v-2.78c-1.36,1-2.73,2-3.87,2.87l-1.05-1.5c1.24-.76,3.09-2,4.92-3.2v-3.31h-5v-1.7h7.16c.11-.42.17-.84.28-1.31h-6.24c.53-1.68,1.23-4.4,1.67-6.46l1.81.21c-.11.5-.21,1.05-.36,1.6h4.17l.32-.08,1.34.18c-.27,1.77-.73,4-1.15,5.86h3v1.7h-5.25v3.1l.7.44a19.65,19.65,0,0,0,2.15-3l1.6.93c-.82,1-1.75,2.08-2.51,2.86,1.33.86,2.66,1.75,3.46,2.4Zm-8.17-4a25.47,25.47,0,0,0-2.44-2.48l1.08-1a32.39,32.39,0,0,1,2.48,2.36Zm4.78-8.63c.13-.57.24-1.14.32-1.63H514.6c-.14.55-.29,1.12-.44,1.63Z"/><path d="M535.31,450.44h1.77v4.22h-1.77V454h-9.75v-3.55h1.79v2h3.09v-2.59h1.81v2.59h3.06Zm-6-3.43v1.14h13.45s0,.5-.06.74c-.3,3.66-.61,5.2-1.16,5.77a1.8,1.8,0,0,1-1.33.61,16.66,16.66,0,0,1-2.31,0,4.65,4.65,0,0,0-.47-1.69,18.11,18.11,0,0,0,1.86.11.81.81,0,0,0,.65-.23c.32-.32.57-1.35.8-3.86H527.37v-12h4.8a15.37,15.37,0,0,0,.53-1.7l2.29.21a10.51,10.51,0,0,1-.78,1.49h6.15v6.59H529.31v1.29H543.5V447Zm0-8v1.27h9.09v-1.27Zm9.09,3.77V441.6h-9.09v1.22Z"/><path d="M503.4,471.74c0-3.69,2.21-5.93,5.23-5.93a4.34,4.34,0,0,1,3.28,1.42l-.78.93a3.2,3.2,0,0,0-2.47-1.09c-2.29,0-3.78,1.78-3.78,4.63s1.35,4.68,3.79,4.68a3.13,3.13,0,0,0,2.07-.67v-3h-2.41v-1.2h3.74v4.8a4.94,4.94,0,0,1-3.54,1.32C505.53,477.64,503.4,475.45,503.4,471.74Z"/><path d="M514.65,469h1.17l.12,1.54h0a2.91,2.91,0,0,1,2.4-1.76,1.79,1.79,0,0,1,.9.19L519,470.2a2,2,0,0,0-.83-.14c-.7,0-1.57.5-2.13,1.95v5.43h-1.42Z"/><path d="M519.88,473.22c0-2.74,1.86-4.45,3.82-4.45,2.15,0,3.36,1.56,3.36,4a5.85,5.85,0,0,1-.06.81h-5.7a2.8,2.8,0,0,0,2.8,2.95,3.63,3.63,0,0,0,2.12-.66l.51.93a5.06,5.06,0,0,1-2.8.87C521.69,477.64,519.88,476,519.88,473.22Zm5.93-.68c0-1.72-.77-2.63-2.1-2.63a2.6,2.6,0,0,0-2.43,2.63Z"/><path d="M528.51,473.22c0-2.74,1.85-4.45,3.81-4.45,2.15,0,3.36,1.56,3.36,4a5.85,5.85,0,0,1-.06.81h-5.7a2.8,2.8,0,0,0,2.81,2.95,3.62,3.62,0,0,0,2.11-.66l.52.93a5.06,5.06,0,0,1-2.8.87C530.31,477.64,528.51,476,528.51,473.22Zm5.93-.68c0-1.72-.78-2.63-2.1-2.63a2.6,2.6,0,0,0-2.43,2.63Z"/><path d="M537.77,469h1.17l.12,1.21h.05a4.06,4.06,0,0,1,2.83-1.43c1.78,0,2.59,1.15,2.59,3.32v5.35h-1.42v-5.17c0-1.59-.48-2.26-1.6-2.26a3.21,3.21,0,0,0-2.32,1.3v6.13h-1.42Z"/><path d="M550.9,466h1.44v11.41H550.9Z"/><path d="M554.38,476.47l.7-.93a3.86,3.86,0,0,0,2.51,1c1.12,0,1.66-.6,1.66-1.33s-1-1.24-1.93-1.6c-1.18-.44-2.52-1-2.52-2.44s1.08-2.4,2.91-2.4a4.39,4.39,0,0,1,2.63,1l-.68.92a3.15,3.15,0,0,0-1.95-.75c-1.06,0-1.54.56-1.54,1.21,0,.81.92,1.11,1.87,1.47,1.23.46,2.58,1,2.58,2.56,0,1.37-1.09,2.51-3.08,2.51A5.09,5.09,0,0,1,554.38,476.47Z"/><path d="M562.62,475.76V465.05H564v10.8c0,.44.19.61.41.61a1.21,1.21,0,0,0,.29,0l.21,1.09a2.52,2.52,0,0,1-.83.12C563.05,477.64,562.62,477,562.62,475.76Z"/><path d="M566.52,475.24c0-1.83,1.61-2.75,5.2-3.15,0-1.09-.35-2.14-1.74-2.14a4.68,4.68,0,0,0-2.54.9l-.56-1a6.44,6.44,0,0,1,3.33-1.1c2.06,0,2.93,1.38,2.93,3.47v5.2H572l-.12-1h-.05a4.52,4.52,0,0,1-2.8,1.21A2.29,2.29,0,0,1,566.52,475.24Zm5.2.14V473c-2.84.34-3.81,1-3.81,2.13s.65,1.35,1.49,1.35A3.4,3.4,0,0,0,571.72,475.38Z"/><path d="M575.83,469H577l.13,1.21h0a4.07,4.07,0,0,1,2.84-1.43c1.77,0,2.58,1.15,2.58,3.32v5.35h-1.42v-5.17c0-1.59-.48-2.26-1.6-2.26-.87,0-1.46.44-2.32,1.3v6.13h-1.42Z"/><path d="M584.74,473.22c0-2.74,1.73-4.45,3.66-4.45a3.42,3.42,0,0,1,2.38,1l-.08-1.47v-3.25h1.42v12.39H591l-.15-1h0a3.73,3.73,0,0,1-2.56,1.2C586.11,477.64,584.74,476,584.74,473.22Zm6,2.07v-4.44a3,3,0,0,0-2.05-.88c-1.37,0-2.45,1.31-2.45,3.24s.84,3.25,2.34,3.25A2.91,2.91,0,0,0,590.7,475.29Z"/><circle class="cls-3" cx="321.81" cy="602.16" r="9.14"/><circle class="cls-4" cx="321.81" cy="602.16" r="4.48"/><path d="M354.62,593.31a9.73,9.73,0,0,1,1.06,1.16,7.93,7.93,0,0,0,1.32-.84l1.5.65a15.9,15.9,0,0,1-3.1,1.79c2.53,2.65,2.53,6.11.89,7.35a2.61,2.61,0,0,1-1.9.63c-.36,0-1,0-1.33,0a3.51,3.51,0,0,0-.44-1.56,11.31,11.31,0,0,0,1.39.07,1.66,1.66,0,0,0,1.05-.23,2.06,2.06,0,0,0,.74-1.94,21.52,21.52,0,0,1-6,2.88,6,6,0,0,0-1-1.2,18.67,18.67,0,0,0,6.78-3.05,5.86,5.86,0,0,0-.38-.8,19.12,19.12,0,0,1-5.16,2.23,5.63,5.63,0,0,0-1-1.14,19.55,19.55,0,0,0,5.5-2.1,6.41,6.41,0,0,0-.49-.55,35.32,35.32,0,0,1-4.48,1.39,6.17,6.17,0,0,0-.93-1.22c.93-.19,1.9-.44,2.89-.72a9.34,9.34,0,0,0-.95-1.43l1.35-.46a9.21,9.21,0,0,1,1,1.41c.5-.17,1-.36,1.43-.53a11.14,11.14,0,0,0-1-1.24Zm4.51,15.12h8.27v1.62H348.83v-1.62h8.32V606.6h-6.3V605h6.3v-1.22h2V605h6.13v1.56h-6.13ZM357,592.05a29,29,0,0,1-7.12,2.08c-.21-.33-.65-.94-.9-1.26a28.34,28.34,0,0,0,6.55-1.58Zm10.59,7.39c-.82.55-1.73,1.12-2.55,1.56a7.29,7.29,0,0,0,2.89,1.75,5.79,5.79,0,0,0-1.12,1.45,9,9,0,0,1-3.89-3.2,10.07,10.07,0,0,0,.19,1.37c-3.69.84-4.32,1-4.7,1.28a7,7,0,0,0-.86-1.47,1.91,1.91,0,0,0,1-1.71v-8.61h8.15v6.49h-3.5a8.07,8.07,0,0,0,1,1.68,23,23,0,0,0,2.17-1.64Zm-7.24-6.17v1.22h4.53v-1.22Zm4.53,3.66v-1.17h-4.53v1.17Zm-2,4a12,12,0,0,1-1.26-2.54h-1.24v3Z"/><path d="M388.36,595.08h-7.45v12.55c0,1.43-.38,2.09-1.39,2.4a16.52,16.52,0,0,1-5,.4,9.22,9.22,0,0,0-.95-2.27c1.83.08,3.73.08,4.3.06s.71-.15.71-.61V595.08h-8.69v-2h18.44Z"/><path d="M349.1,621.3h1.45V627h.05l4.76-5.73H357l-3.57,4.34,4.13,7.07h-1.62l-3.41-6-2,2.34v3.61H349.1Z"/><path d="M358.27,628.49c0-2.74,1.86-4.45,3.82-4.45,2.14,0,3.36,1.56,3.36,4a5.73,5.73,0,0,1-.06.81h-5.7a2.8,2.8,0,0,0,2.8,3,3.64,3.64,0,0,0,2.12-.67l.51.93a5.06,5.06,0,0,1-2.8.87C360.08,632.91,358.27,631.28,358.27,628.49Zm5.93-.68c0-1.71-.77-2.63-2.1-2.63a2.6,2.6,0,0,0-2.43,2.63Z"/><path d="M367.54,624.26h1.16l.13,1.21h0a4.09,4.09,0,0,1,2.84-1.43c1.77,0,2.58,1.15,2.58,3.32v5.35h-1.42v-5.17c0-1.58-.48-2.25-1.6-2.25a3.21,3.21,0,0,0-2.32,1.29v6.13h-1.41Z"/><path d="M377.3,630.09v-4.68H376v-1.07l1.32-.08.17-2.37h1.18v2.37H381v1.15h-2.29v4.72c0,1,.33,1.63,1.31,1.63a3,3,0,0,0,1-.22l.28,1.06a5.27,5.27,0,0,1-1.56.31C377.9,632.91,377.3,631.79,377.3,630.09Z"/><path d="M382.65,621.6a1,1,0,0,1,2,0,1,1,0,0,1-2,0Zm.27,2.66h1.41v8.45h-1.41Z"/><path d="M387.2,624.26h1.17l.12,1.21h.05a4.06,4.06,0,0,1,2.83-1.43c1.77,0,2.58,1.15,2.58,3.32v5.35h-1.41v-5.17c0-1.58-.48-2.25-1.61-2.25a3.17,3.17,0,0,0-2.31,1.29v6.13H387.2Z"/><path d="M396.06,634.33a2.39,2.39,0,0,1,1.26-1.92v-.06a1.52,1.52,0,0,1-.78-1.38,2.08,2.08,0,0,1,.95-1.58v-.06a3,3,0,0,1-1.11-2.27,3,3,0,0,1,3.18-3,3.4,3.4,0,0,1,1.18.22h2.94v1.09H402a2.43,2.43,0,0,1,.68,1.74,2.89,2.89,0,0,1-3.08,2.94,3,3,0,0,1-1.26-.29,1.25,1.25,0,0,0-.55,1c0,.54.35.92,1.48.92h1.65c2,0,2.94.62,2.94,2,0,1.58-1.65,2.93-4.26,2.93C397.49,636.6,396.06,635.79,396.06,634.33Zm6.39-.44c0-.78-.6-1-1.72-1h-1.47a5,5,0,0,1-1.09-.14,1.8,1.8,0,0,0-.87,1.43c0,.9.92,1.5,2.46,1.5S402.45,634.78,402.45,633.89Zm-1.1-6.83a1.81,1.81,0,1,0-3.6,0,1.81,1.81,0,1,0,3.6,0Z"/><circle class="cls-3" cx="160.67" cy="344.8" r="9.14"/><circle class="cls-4" cx="160.67" cy="344.8" r="4.48"/><circle class="cls-3" cx="241.56" cy="500.58" r="9.14"/><circle class="cls-4" cx="241.56" cy="500.58" r="4.48"/><path d="M164.42,518.13c-.69,3.08-1.87,6.89-3.71,9.23a8.86,8.86,0,0,0-1.87-1c1.77-2.19,2.89-5.81,3.37-8.59Zm5.37-5.22v16.45c0,1.3-.34,1.87-1.16,2.21a13.3,13.3,0,0,1-4.19.36,9.43,9.43,0,0,0-.78-2c1.43.07,3,.07,3.41,0s.59-.14.59-.56V512.91Zm4.8,4.65a33.92,33.92,0,0,1,4,9.31l-2.12.84a36.18,36.18,0,0,0-3.81-9.43Z"/><path d="M187,527.63c-2.34.78-4.87,1.56-6.76,2.13l-.34-1.88c.76-.19,1.67-.46,2.68-.73v-5.4h-2.15v-1.81h2.15v-4.19h-2.4v-1.81h6.57v1.81h-2.49v4.19h2v1.81h-2v4.89l2.53-.78Zm1.41-5.1h1.7V525c0,2.35-.4,5.09-3.45,7a6.63,6.63,0,0,0-1.2-1.33,6.05,6.05,0,0,0,2.95-5.73Zm9.47-.08c-.23-.36-.52-.84-.88-1.33-7.64.53-8.63.63-9.29.89a16.75,16.75,0,0,0-.63-1.77c.49-.11.95-.59,1.58-1.31a20.73,20.73,0,0,0,1.62-2.17h-3.2V515.1h4.3c.48-.76.92-1.56,1.32-2.36l1.84.72c-.3.55-.66,1.11-1,1.64h5.37v1.66h-6.51a32.28,32.28,0,0,1-2.46,3.14l5.91-.33c-.44-.62-.92-1.23-1.37-1.75l1.37-.87c1.14,1.39,2.72,3.35,3.48,4.45Zm-6.06.32h1.71V531H191.8Zm6.51,7.22a3.27,3.27,0,0,0,.94-.11c.05.47.09,1.1.15,1.52a3.45,3.45,0,0,1-1.07.13h-1.16c-1.62,0-1.94-.68-1.94-2.36v-6.61H197v6.65c0,.61,0,.78.32.78Z"/><path d="M220.19,519.86a54.16,54.16,0,0,1-3.56,4.34,11.71,11.71,0,0,0,4.11,4.71,4.25,4.25,0,0,0-1.2,1.52,13.56,13.56,0,0,1-4.47-5.47v4.69c0,1.05-.25,1.6-.88,1.92a7.8,7.8,0,0,1-3.26.4,8.88,8.88,0,0,0-.68-1.88c1.14,0,2.15,0,2.47,0s.46-.13.46-.47v-4.29c-1.62,1.62-3.29,3.2-4.68,4.46l-1.2-1.71.3-.23c-2.17.72-4.44,1.43-6.21,2L201,528c.73-.19,1.66-.47,2.65-.76v-5.48h-2.25v-1.81h2.25v-4.19h-2.4v-1.81h6.51v1.81h-2.3v4.19h2v1.81h-2v4.93l2.4-.73.25,1.55c1.39-1.11,3.31-2.73,5.1-4.27v-5.29h-5v-1.81h5v-3.49h1.89v3.49h5.33v1.81h-5.33v.87a25.61,25.61,0,0,0,.89,3.75,31.4,31.4,0,0,0,2.52-3.58Zm-10.25-.76a16.4,16.4,0,0,1,2.19,3.75l-1.63.78a15.48,15.48,0,0,0-2.08-3.85Zm8.42-3a13.94,13.94,0,0,0-2.44-2.29l1.09-1a14,14,0,0,1,2.53,2.14Z"/><path d="M163.68,548.17l-3.6-5.55h1.61l1.85,2.94c.33.53.62,1,1.06,1.66h.06c.39-.67.67-1.13,1-1.66l1.8-2.94H169l-3.58,5.58,3.87,5.86h-1.65l-2-3.09c-.34-.56-.73-1.13-1.16-1.83h-.07L163.32,551l-1.93,3.09h-1.55Z"/><path d="M172.17,542.94a1,1,0,0,1,2,0,1,1,0,0,1-2,0Zm.26,2.66h1.42v8.46h-1.42Z"/><path d="M176.18,551.86c0-1.84,1.61-2.75,5.2-3.16,0-1.09-.36-2.13-1.74-2.13a4.68,4.68,0,0,0-2.54.9l-.56-1a6.35,6.35,0,0,1,3.33-1.1c2.06,0,2.93,1.38,2.93,3.47v5.2h-1.17l-.12-1h0a4.54,4.54,0,0,1-2.8,1.22A2.29,2.29,0,0,1,176.18,551.86Zm5.2.14v-2.36c-2.85.34-3.81,1-3.81,2.13s.65,1.35,1.49,1.35A3.44,3.44,0,0,0,181.38,552Z"/><path d="M184.86,549.84c0-2.82,1.85-4.45,3.92-4.45s3.92,1.63,3.92,4.45-1.85,4.42-3.92,4.42S184.86,552.64,184.86,549.84Zm6.38,0c0-2-1-3.27-2.46-3.27s-2.45,1.32-2.45,3.27,1,3.24,2.45,3.24S191.24,551.78,191.24,549.84Z"/><path d="M198.54,542.65H200v10.18h5v1.23h-6.43Z"/><path d="M206.59,542.94a1,1,0,0,1,2,0,1,1,0,0,1-2,0Zm.26,2.66h1.42v8.46h-1.42Z"/><path d="M211,551V545.6h1.42v5.19c0,1.57.47,2.24,1.59,2.24.87,0,1.48-.42,2.29-1.43v-6h1.41v8.46h-1.18l-.11-1.33h-.05a3.61,3.61,0,0,1-2.8,1.53C211.82,554.26,211,553.11,211,551Z"/><path d="M225.94,554.62l.07-1.54a3.77,3.77,0,0,1-2.55,1.18c-2.11,0-3.48-1.6-3.48-4.42s1.72-4.45,3.65-4.45a3.37,3.37,0,0,1,2.42,1h0l.14-.81h1.12v12h-1.41Zm0-2.71v-4.44a3,3,0,0,0-2.06-.88c-1.37,0-2.44,1.3-2.44,3.23s.84,3.26,2.33,3.26A2.91,2.91,0,0,0,225.94,551.91Z"/><path d="M230,542.94a1,1,0,0,1,2,0,1,1,0,0,1-2,0Zm.26,2.66h1.42v8.46h-1.42Z"/><path d="M234.41,551V545.6h1.41v5.19c0,1.57.47,2.24,1.59,2.24.87,0,1.48-.42,2.29-1.43v-6h1.42v8.46h-1.19l-.11-1.33h0a3.64,3.64,0,0,1-2.8,1.53C235.2,554.26,234.41,553.11,234.41,551Z"/><path d="M109.16,378.66a21.63,21.63,0,0,0-3.35-2.33l.93-1.46a21.09,21.09,0,0,1,3.39,2.17Zm1.66,2.66c-.92,2.19-2.06,4.65-3.11,6.61l-1.48-1.31a64.76,64.76,0,0,0,3.31-6.59Zm-.92-8.26a24.64,24.64,0,0,0-3.23-2.34l1-1.43a27.25,27.25,0,0,1,3.27,2.19ZM119.44,386c-3,.67-6.13,1.3-8.41,1.79l-.5-1.75c1.28-.21,3-.5,4.8-.86a33.94,33.94,0,0,0,1.18-3.92l1.79.49c-.38,1-.84,2.14-1.24,3.09l2.21-.42ZM114,372.3h-3v-1.58h3v-1.64h1.86v1.64H119v1.58h-3.11v1.5h2.61v1.54h-7.12V373.8H114Zm4.34,8.74h-6.78v-4.59h6.78Zm-5.58,4a11.14,11.14,0,0,0-1-3.24l1.56-.46a10,10,0,0,1,1.09,3.2Zm3.83-7.24h-3.34v1.85h3.34Zm8.51,3.94a13.82,13.82,0,0,1-5.77,6.5,6.39,6.39,0,0,0-1.28-1.38,11.74,11.74,0,0,0,5.24-5.67ZM124.55,370A17.25,17.25,0,0,1,120,375.4a5.69,5.69,0,0,0-1.34-1.29,14.12,14.12,0,0,0,4.12-4.75Zm.25,5.81a15.13,15.13,0,0,1-4.61,5.39,6.26,6.26,0,0,0-1.34-1.33,12.19,12.19,0,0,0,4.16-4.67Z"/><path d="M130.31,378.22a15,15,0,0,0-3.37-2l1-1.41a13,13,0,0,1,3.43,1.91Zm-3,8.84a64.89,64.89,0,0,0,2.83-6.69l1.57,1c-.75,2.21-1.74,4.72-2.63,6.68ZM131,372.79a12.76,12.76,0,0,0-3.26-2.19l1.09-1.39a14.93,14.93,0,0,1,3.33,2Zm2.87,12.67V387h-1.69v-8.52h2.28V375h-2.95v-1.77h2.95v-3.62h1.76v3.62h2.62V375h-2.62v3.54h2.13v6.94Zm0-5.24v3.56h2.78v-3.56Zm11.77,5.9c0,.86-.19,1.37-.76,1.66a6.24,6.24,0,0,1-2.78.32,6.43,6.43,0,0,0-.59-1.63c.88,0,1.75,0,2,0s.38-.11.38-.4v-5.48l-2,1.83-.71-1.53c-.24,2.65-.87,5.49-2.62,7.45a7.37,7.37,0,0,0-1.45-1c2.25-2.53,2.46-6.23,2.46-9.2v-8.43h6Zm-4.32-8c0,.84,0,1.75-.1,2.69.71-.44,1.68-1.16,2.67-1.91v-1.81l-.72.58a17.15,17.15,0,0,0-1.85-2.27Zm0-6.68v3.46l.74-.53a20.83,20.83,0,0,1,1.83,2v-4.91Z"/><path d="M106.59,399h3.25c2.57,0,4.28.85,4.28,3.34s-1.71,3.54-4.2,3.54H108v4.53h-1.45Zm3.14,5.71c2,0,3-.73,3-2.37s-1-2.18-3-2.18H108v4.55Z"/><path d="M115.24,406.2c0-2.74,1.86-4.45,3.82-4.45,2.14,0,3.36,1.55,3.36,4a5.85,5.85,0,0,1-.06.81h-5.7a2.8,2.8,0,0,0,2.8,3,3.64,3.64,0,0,0,2.12-.67l.51.94a5,5,0,0,1-2.8.87C117.05,410.62,115.24,409,115.24,406.2Zm5.93-.69c0-1.71-.77-2.63-2.1-2.63a2.61,2.61,0,0,0-2.43,2.63Z"/><path d="M124.51,402h1.16l.13,1.22h0a4,4,0,0,1,2.83-1.43c1.77,0,2.58,1.15,2.58,3.31v5.36h-1.41v-5.17c0-1.59-.49-2.26-1.61-2.26a3.24,3.24,0,0,0-2.32,1.29v6.14h-1.41Z"/><path d="M133.36,412a2.39,2.39,0,0,1,1.27-1.92v-.06a1.53,1.53,0,0,1-.78-1.39,2,2,0,0,1,1-1.57V407a3,3,0,0,1-1.11-2.27,3,3,0,0,1,3.18-3,3.78,3.78,0,0,1,1.18.21H141v1.09h-1.73a2.42,2.42,0,0,1,.69,1.75,3,3,0,0,1-4.34,2.64,1.26,1.26,0,0,0-.55,1c0,.54.34.91,1.48.91h1.65c2,0,2.94.63,2.94,2,0,1.57-1.65,2.93-4.26,2.93C134.8,414.31,133.36,413.5,133.36,412Zm6.4-.44c0-.78-.61-1-1.73-1h-1.46a5,5,0,0,1-1.09-.14,1.76,1.76,0,0,0-.87,1.43c0,.9.92,1.49,2.46,1.49S139.76,412.49,139.76,411.6Zm-1.1-6.83a1.81,1.81,0,1,0-3.6,0,1.81,1.81,0,1,0,3.6,0Z"/><path d="M142.78,398h1.42v3.39l0,1.74a4,4,0,0,1,2.8-1.41c1.78,0,2.59,1.15,2.59,3.31v5.36h-1.42v-5.17c0-1.59-.48-2.26-1.6-2.26a3.24,3.24,0,0,0-2.32,1.29v6.14h-1.42Z"/><path d="M152.12,407.32V402h1.42v5.19c0,1.57.47,2.24,1.59,2.24.87,0,1.48-.42,2.29-1.43v-6h1.41v8.46h-1.18l-.11-1.33h0a3.61,3.61,0,0,1-2.8,1.53C152.92,410.62,152.12,409.47,152.12,407.32Z"/><path class="cls-5" d="M644.55,223.6a7.17,7.17,0,0,0-12.43,0h0a7.18,7.18,0,0,1-12.43,0h0a7.17,7.17,0,0,0-12.43,0h0a7.18,7.18,0,0,1-12.43,0h0a7.16,7.16,0,0,0-12.42,0h0a7.18,7.18,0,0,1-12.43,0h0a7.17,7.17,0,0,0-12.43,0"/><path class="cls-5" d="M185.42,216.42a7.18,7.18,0,0,0-12.43,0h0a7.16,7.16,0,0,1-12.42,0h0a7.18,7.18,0,0,0-12.43,0h0a7.17,7.17,0,0,1-12.43,0h0a7.18,7.18,0,0,0-12.43,0h0a7.17,7.17,0,0,1-12.43,0h0a7.18,7.18,0,0,0-12.43,0"/><path class="cls-5" d="M309.72,71.32a7.18,7.18,0,0,0-12.43,0h0a7.17,7.17,0,0,1-12.43,0h0a7.18,7.18,0,0,0-12.43,0h0a7.17,7.17,0,0,1-12.43,0h0a7.18,7.18,0,0,0-12.43,0h0a7.16,7.16,0,0,1-12.42,0h0a7.18,7.18,0,0,0-12.43,0"/><path class="cls-5" d="M575.86,293.64a7.18,7.18,0,0,0-12.43,0h0a7.18,7.18,0,0,1-12.43,0h0a7.18,7.18,0,0,0-12.43,0h0a7.18,7.18,0,0,1-12.43,0h0a7.18,7.18,0,0,0-12.43,0h0a7.17,7.17,0,0,1-12.42,0h0a7.18,7.18,0,0,0-12.43,0"/><path class="cls-5" d="M628.49,400.26a7.18,7.18,0,0,0-12.43,0h0a7.17,7.17,0,0,1-12.42,0h0a7.18,7.18,0,0,0-12.43,0h0a7.18,7.18,0,0,1-12.43,0h0a7.18,7.18,0,0,0-12.43,0h0a7.18,7.18,0,0,1-12.43,0h0a7.17,7.17,0,0,0-12.42,0"/><path class="cls-5" d="M266.22,622.31a7.17,7.17,0,0,0-12.43,0h0a7.18,7.18,0,0,1-12.43,0h0a7.17,7.17,0,0,0-12.43,0h0a7.18,7.18,0,0,1-12.43,0h0a7.16,7.16,0,0,0-12.42,0h0a7.18,7.18,0,0,1-12.43,0h0a7.17,7.17,0,0,0-12.43,0"/><polyline class="cls-5" points="55.01 51.27 32.75 27.13 10.49 51.27"/><line class="cls-5" x1="32.75" y1="27.13" x2="32.75" y2="155.04"/><line class="cls-5" x1="0.5" y1="93.33" x2="65" y2="93.33"/><path d="M27,20.46,30,6.32h1.83l2.38,5.31c.73,1.62,1.31,3,1.73,4.08.24.65.53,1.52.85,2.61.17-1.19.39-2.42.65-3.69l1.74-8.31H41l-3,14.14H36.18l-3.51-8.17c-.62-1.44-1.11-2.71-1.46-3.81a32.78,32.78,0,0,1-.56,3.39l-1.79,8.59Z"/></g></g></svg>